<svg width="24" height="25" viewBox="0 0 24 25" fill="none" xmlns="http://www.w3.org/2000/svg">
<path d="M12 20.7733C12 20.7733 2.625 15.5233 2.625 9.14832C2.62519 8.02157 3.01561 6.92967 3.72989 6.05824C4.44416 5.18682 5.4382 4.58968 6.54299 4.36833C7.64778 4.14698 8.79514 4.3151 9.78999 4.8441C10.7848 5.3731 11.5658 6.23033 12 7.27004L12 7.27005C12.4342 6.23034 13.2152 5.37311 14.21 4.84411C15.2049 4.31511 16.3522 4.14699 17.457 4.36833C18.5618 4.58967 19.5558 5.18682 20.2701 6.05824C20.9844 6.92967 21.3748 8.02157 21.375 9.14832C21.375 15.5233 12 20.7733 12 20.7733Z" stroke="#77A28D" stroke-width="1.5" stroke-linecap="round" stroke-linejoin="round"/>
</svg>
