<?xml version="1.0" encoding="UTF-8"?>
<svg id="Layer_2" xmlns="http://www.w3.org/2000/svg" viewBox="0 0 973.93 289.41">
  <defs>
    <style>
      .cls-1 {
        fill: #111815;
      }

      .cls-2 {
        fill: #537a67;
      }
    </style>
  </defs>
  <g id="Layer_1-2" data-name="Layer_1">
    <g>
      <g>
        <path class="cls-2" d="M848.64,105.98h0c-12.13,12.13-31.52,12.94-44.62,1.87l-59.03-49.88c-2.59-2.19-2.76-6.13-.36-8.52L792.55,1.53c2.16-2.16,5.71-2.01,7.68.32l50.29,59.51c11.07,13.1,10.26,32.5-1.87,44.62Z"/>
        <path class="cls-2" d="M867.95,106.01h0c-12.13-12.13-12.94-31.52-1.87-44.62l49.88-59.03c2.19-2.59,6.13-2.76,8.52-.36l47.92,47.92c2.16,2.16,2.01,5.71-.32,7.68l-59.51,50.29c-13.1,11.07-32.5,10.26-44.62-1.87Z"/>
        <path class="cls-2" d="M848.92,125.26h0c12.13,12.13,12.94,31.52,1.87,44.62l-49.88,59.03c-2.19,2.59-6.13,2.76-8.52.36l-47.92-47.92c-2.16-2.16-2.01-5.71.32-7.68l59.51-50.29c13.1-11.07,32.49-10.26,44.62,1.87Z"/>
        <path class="cls-2" d="M868.22,125.31h0c12.13-12.13,31.52-12.94,44.62-1.87l59.03,49.88c2.59,2.19,2.76,6.13.36,8.52l-47.92,47.92c-2.16,2.16-5.71,2.01-7.68-.32l-50.29-59.51c-11.07-13.1-10.26-32.49,1.87-44.62Z"/>
        <rect class="cls-2" x="746.7" y="98" width="34.03" height="35.32"/>
        <rect class="cls-2" x="841.27" y="191.74" width="34.03" height="35.32"/>
        <rect class="cls-2" x="936.02" y="98.02" width="34.03" height="35.32"/>
        <rect class="cls-2" x="841.27" y="3.91" width="34.03" height="35.32"/>
      </g>
      <g>
        <path class="cls-1" d="M77.34,105.75l47.74,61.35h-28.17l-34.61-45.12-34.85,45.12H0l47.74-60.63L1.91,47.74h28.17l32.7,42.73,31.99-42.73h28.17l-45.59,58.01Z"/>
        <path class="cls-1" d="M237.99,47.74h24.59l-58,132.72c-3.66,8.27-8.16,14.96-13.49,20.05-5.33,5.09-13.01,7.64-23.03,7.64-7.64,0-13.69-.16-18.14-.48v-21.48c4.45.32,9.79.48,15.99.48,4.45,0,8-1.19,10.62-3.58,2.63-2.39,4.81-5.65,6.56-9.79l3.58-8.35-58.01-117.21h26.5l43.68,89.52,39.15-89.52Z"/>
        <path class="cls-1" d="M456.53,51.56c7.56,4.14,13.52,10.38,17.9,18.74,4.38,8.35,6.56,18.58,6.56,30.67v66.12h-22.68v-65.64c0-10.5-2.98-18.86-8.95-25.06-5.97-6.21-13.49-9.31-22.56-9.31-9.87,0-17.83,3.5-23.87,10.5-6.05,7-9.07,15.6-9.07,25.78v63.74h-22.68v-65.64c0-10.5-2.98-18.86-8.95-25.06-5.97-6.21-13.49-9.31-22.56-9.31-9.87,0-17.82,3.5-23.87,10.5-6.05,7-9.07,15.6-9.07,25.78v63.74h-22.68V47.74h21.48v18.86c4.3-6.52,9.82-11.7,16.59-15.52,6.76-3.82,13.96-5.73,21.6-5.73,9.39,0,17.86,2.03,25.42,6.09,7.56,4.06,13.41,10.07,17.55,18.02,4.61-7.32,10.86-13.17,18.74-17.55,7.88-4.38,16.35-6.56,25.42-6.56,9.55,0,18.1,2.07,25.66,6.21Z"/>
        <path class="cls-1" d="M515.6,26.26V0h25.3v26.26h-25.3ZM516.8,167.1V47.74h22.68v119.35h-22.68Z"/>
        <path class="cls-1" d="M669.33,53.35c8.59,5.33,15.36,12.69,20.29,22.08,4.93,9.39,7.4,20.05,7.4,31.99s-2.47,22.6-7.4,31.99c-4.93,9.39-11.7,16.75-20.29,22.08-8.59,5.33-18.14,8-28.64,8-7.96,0-15.44-1.79-22.44-5.37-7-3.58-12.97-8.55-17.9-14.92v125.86h-22.68V47.74h21.48v19.34c5.09-6.84,11.22-12.17,18.38-15.99,7.16-3.82,14.88-5.73,23.16-5.73,10.5,0,20.05,2.67,28.64,8ZM655.72,143.23c5.57-3.5,9.94-8.39,13.13-14.68,3.18-6.28,4.77-13.33,4.77-21.13s-1.59-14.84-4.77-21.13c-3.19-6.28-7.56-11.18-13.13-14.68-5.57-3.5-11.86-5.25-18.86-5.25s-13.37,1.75-19.1,5.25c-5.73,3.5-10.18,8.4-13.37,14.68-3.19,6.29-4.77,13.33-4.77,21.13s1.59,14.84,4.77,21.13c3.18,6.29,7.64,11.18,13.37,14.68,5.73,3.5,12.09,5.25,19.1,5.25s13.29-1.75,18.86-5.25Z"/>
      </g>
      <g>
        <path class="cls-2" d="M257.13,274.75h-10.48l-16.02-19.77-5.88,5.45v14.32h-8.1v-60.09h8.1v36.56l20.62-19.09h9.97l-18.83,17.39,20.62,25.23Z"/>
        <path class="cls-2" d="M297.1,234.14c3.07,1.9,5.48,4.53,7.24,7.88,1.76,3.35,2.64,7.16,2.64,11.42s-.88,8.07-2.64,11.42c-1.76,3.35-4.18,5.98-7.24,7.88-3.07,1.9-6.48,2.86-10.23,2.86-2.84,0-5.51-.64-8.01-1.92-2.5-1.28-4.63-3.05-6.39-5.33v20.88h-8.1v-57.1h7.67v6.9c1.82-2.44,4.01-4.35,6.56-5.71,2.56-1.36,5.31-2.05,8.27-2.05,3.75,0,7.16.95,10.23,2.86ZM292.24,266.23c1.99-1.25,3.55-3,4.69-5.24,1.14-2.24,1.71-4.76,1.71-7.54s-.57-5.3-1.71-7.54c-1.14-2.24-2.7-3.99-4.69-5.24-1.99-1.25-4.23-1.88-6.73-1.88s-4.77.63-6.82,1.88c-2.05,1.25-3.64,3-4.77,5.24-1.14,2.25-1.71,4.76-1.71,7.54s.57,5.3,1.71,7.54c1.14,2.25,2.73,3.99,4.77,5.24,2.05,1.25,4.32,1.88,6.82,1.88s4.74-.62,6.73-1.88Z"/>
        <path class="cls-2" d="M348.32,232.14h7.67v42.61h-8.1v-6.39c-1.76,2.27-3.89,4.05-6.39,5.33-2.5,1.28-5.17,1.92-8.01,1.92-3.75,0-7.16-.95-10.23-2.86-3.07-1.9-5.48-4.53-7.24-7.88-1.76-3.35-2.64-7.16-2.64-11.42s.88-8.07,2.64-11.42c1.76-3.35,4.18-5.98,7.24-7.88,3.07-1.9,6.48-2.86,10.23-2.86,2.95,0,5.71.68,8.27,2.05,2.56,1.36,4.74,3.27,6.56,5.71v-6.9ZM341.67,266.23c2.05-1.25,3.64-3,4.77-5.24,1.14-2.24,1.7-4.76,1.7-7.54s-.57-5.3-1.7-7.54c-1.14-2.24-2.73-3.99-4.77-5.24-2.05-1.25-4.32-1.88-6.82-1.88s-4.74.63-6.73,1.88c-1.99,1.25-3.55,3-4.69,5.24-1.14,2.25-1.7,4.76-1.7,7.54s.57,5.3,1.7,7.54c1.14,2.25,2.7,3.99,4.69,5.24,1.99,1.25,4.23,1.88,6.73,1.88s4.77-.62,6.82-1.88Z"/>
        <path class="cls-2" d="M405.34,232.14c4.09,0,7.84.94,11.25,2.81,3.41,1.88,6.09,4.45,8.05,7.71,1.96,3.27,2.94,6.86,2.94,10.78s-.98,7.51-2.94,10.78c-1.96,3.27-4.65,5.84-8.05,7.71-3.41,1.88-7.16,2.81-11.25,2.81h-4.6v14.49h-8.1v-14.49h-4.43c-4.15,0-7.93-.94-11.34-2.81-3.41-1.88-6.11-4.45-8.1-7.71-1.99-3.27-2.98-6.86-2.98-10.78s.99-7.51,2.98-10.78c1.99-3.27,4.69-5.84,8.1-7.71,3.41-1.88,7.19-2.81,11.34-2.81h4.43v-17.47h8.1v17.47h4.6ZM392.64,267.25v-27.61h-4.18c-2.67,0-5.1.61-7.29,1.83-2.19,1.22-3.91,2.88-5.16,4.99-1.25,2.1-1.88,4.43-1.88,6.99s.62,4.89,1.88,6.99c1.25,2.1,2.97,3.76,5.16,4.99,2.19,1.22,4.62,1.83,7.29,1.83h4.18ZM405.08,267.25c2.61,0,5-.61,7.16-1.83,2.16-1.22,3.86-2.88,5.11-4.99,1.25-2.1,1.88-4.43,1.88-6.99s-.63-4.89-1.88-6.99c-1.25-2.1-2.96-3.76-5.11-4.99-2.16-1.22-4.55-1.83-7.16-1.83h-4.35v27.61h4.35Z"/>
        <path class="cls-2" d="M498.96,233.5c2.7,1.48,4.83,3.71,6.39,6.69,1.56,2.98,2.34,6.63,2.34,10.95v23.61h-8.1v-23.44c0-3.75-1.07-6.73-3.2-8.95-2.13-2.22-4.82-3.32-8.05-3.32-3.52,0-6.36,1.25-8.52,3.75-2.16,2.5-3.24,5.57-3.24,9.2v22.76h-8.1v-23.44c0-3.75-1.07-6.73-3.2-8.95-2.13-2.22-4.82-3.32-8.05-3.32-3.52,0-6.36,1.25-8.52,3.75-2.16,2.5-3.24,5.57-3.24,9.2v22.76h-8.1v-42.61h7.67v6.73c1.53-2.33,3.51-4.18,5.92-5.54,2.41-1.36,4.99-2.05,7.71-2.05,3.35,0,6.38.72,9.08,2.17,2.7,1.45,4.79,3.59,6.26,6.43,1.65-2.61,3.88-4.7,6.69-6.26,2.81-1.56,5.84-2.34,9.08-2.34,3.41,0,6.46.74,9.16,2.22Z"/>
        <path class="cls-2" d="M550.56,232.14h8.78l-20.71,47.39c-1.31,2.95-2.91,5.34-4.82,7.16-1.9,1.82-4.65,2.73-8.22,2.73-2.73,0-4.89-.06-6.48-.17v-7.67c1.59.11,3.49.17,5.71.17,1.59,0,2.86-.43,3.79-1.28.94-.85,1.72-2.02,2.34-3.49l1.28-2.98-20.71-41.85h9.46l15.6,31.96,13.98-31.96Z"/>
      </g>
    </g>
  </g>
</svg>